<mxfile host="65bd71144e">
    <diagram id="SCXTi65hQlh65_7ZWO8i" name="Page-1">
        <mxGraphModel dx="1072" dy="1587" grid="0" gridSize="10" guides="0" tooltips="1" connect="1" arrows="1" fold="1" page="0" pageScale="1" pageWidth="850" pageHeight="1100" math="0" shadow="0">
            <root>
                <mxCell id="0"/>
                <mxCell id="1" parent="0"/>
                <mxCell id="145" style="edgeStyle=none;html=1;exitX=0;exitY=0;exitDx=306;exitDy=107;exitPerimeter=0;entryX=0;entryY=0;entryDx=0;entryDy=107;entryPerimeter=0;startArrow=classic;startFill=1;" parent="1" source="127" target="134" edge="1">
                    <mxGeometry relative="1" as="geometry"/>
                </mxCell>
                <mxCell id="127" value="&lt;font style=&quot;font-size: 14px;&quot;&gt;Interfaz de usuario&lt;/font&gt;" style="shape=folder;fontStyle=1;tabWidth=135;tabHeight=28;tabPosition=left;html=1;boundedLbl=1;labelInHeader=1;container=1;collapsible=0;recursiveResize=0;fillColor=#d5e8d4;strokeColor=#82b366;" parent="1" vertex="1">
                    <mxGeometry x="63" y="-173" width="306" height="186" as="geometry"/>
                </mxCell>
                <mxCell id="128" value="MapScreen" style="html=1;" parent="127" vertex="1">
                    <mxGeometry width="110" height="30" relative="1" as="geometry">
                        <mxPoint x="33" y="52" as="offset"/>
                    </mxGeometry>
                </mxCell>
                <mxCell id="131" value="TourSumaryScreen" style="html=1;" parent="127" vertex="1">
                    <mxGeometry x="173" y="52" width="110" height="30" as="geometry"/>
                </mxCell>
                <mxCell id="132" value="TourSelectionScreen" style="html=1;" parent="127" vertex="1">
                    <mxGeometry x="20" y="110" width="131" height="30" as="geometry"/>
                </mxCell>
                <mxCell id="133" value="SavedTourScreen" style="html=1;" parent="127" vertex="1">
                    <mxGeometry x="165" y="109" width="131" height="30" as="geometry"/>
                </mxCell>
                <mxCell id="144" style="edgeStyle=none;html=1;startArrow=classic;startFill=1;" parent="1" edge="1">
                    <mxGeometry relative="1" as="geometry">
                        <mxPoint x="740" y="-63.60795454545462" as="sourcePoint"/>
                        <mxPoint x="799" y="-63.42857142857133" as="targetPoint"/>
                        <Array as="points">
                            <mxPoint x="763" y="-64"/>
                        </Array>
                    </mxGeometry>
                </mxCell>
                <mxCell id="134" value="&lt;font style=&quot;font-size: 14px;&quot;&gt;LÃ³gica de Negocio&lt;/font&gt;" style="shape=folder;fontStyle=1;tabWidth=135;tabHeight=28;tabPosition=left;html=1;boundedLbl=1;labelInHeader=1;container=1;collapsible=0;recursiveResize=0;fillColor=#d5e8d4;strokeColor=#82b366;" parent="1" vertex="1">
                    <mxGeometry x="434" y="-173" width="306" height="186" as="geometry"/>
                </mxCell>
                <mxCell id="135" value="GpsBloc" style="html=1;" parent="134" vertex="1">
                    <mxGeometry width="110" height="30" relative="1" as="geometry">
                        <mxPoint x="30" y="52" as="offset"/>
                    </mxGeometry>
                </mxCell>
                <mxCell id="136" value="LocationBloc" style="html=1;" parent="134" vertex="1">
                    <mxGeometry x="173" y="52" width="110" height="30" as="geometry"/>
                </mxCell>
                <mxCell id="137" value="TourBloc" style="html=1;" parent="134" vertex="1">
                    <mxGeometry x="20" y="110" width="131" height="30" as="geometry"/>
                </mxCell>
                <mxCell id="138" value="MapBloc" style="html=1;" parent="134" vertex="1">
                    <mxGeometry x="165" y="110" width="131" height="30" as="geometry"/>
                </mxCell>
                <mxCell id="139" value="&lt;font style=&quot;font-size: 14px;&quot;&gt;Servicios Externos&lt;/font&gt;" style="shape=folder;fontStyle=1;tabWidth=135;tabHeight=28;tabPosition=left;html=1;boundedLbl=1;labelInHeader=1;container=1;collapsible=0;recursiveResize=0;fillColor=#d5e8d4;strokeColor=#82b366;" parent="1" vertex="1">
                    <mxGeometry x="799" y="-173" width="306" height="186" as="geometry"/>
                </mxCell>
                <mxCell id="140" value="GeminiService" style="html=1;" parent="139" vertex="1">
                    <mxGeometry width="110" height="30" relative="1" as="geometry">
                        <mxPoint x="104" y="50" as="offset"/>
                    </mxGeometry>
                </mxCell>
                <mxCell id="141" value="OptimizationService" style="html=1;" parent="139" vertex="1">
                    <mxGeometry x="107" y="145" width="110" height="30" as="geometry"/>
                </mxCell>
                <mxCell id="142" value="PlacesService" style="html=1;" parent="139" vertex="1">
                    <mxGeometry x="94" y="98" width="131" height="30" as="geometry"/>
                </mxCell>
                <mxCell id="156" style="edgeStyle=none;html=1;entryX=0.507;entryY=0.129;entryDx=0;entryDy=0;entryPerimeter=0;startArrow=classic;startFill=1;" edge="1" parent="1" source="146" target="134">
                    <mxGeometry relative="1" as="geometry"/>
                </mxCell>
                <mxCell id="146" value="&lt;font style=&quot;font-size: 14px;&quot;&gt;Modelo&lt;/font&gt;" style="shape=folder;fontStyle=1;tabWidth=135;tabHeight=28;tabPosition=left;html=1;boundedLbl=1;labelInHeader=1;container=1;collapsible=0;recursiveResize=0;fillColor=#d5e8d4;strokeColor=#82b366;" vertex="1" parent="1">
                    <mxGeometry x="433" y="-406" width="306" height="186" as="geometry"/>
                </mxCell>
                <mxCell id="147" value="EcoCityTour" style="html=1;" vertex="1" parent="146">
                    <mxGeometry width="110" height="30" relative="1" as="geometry">
                        <mxPoint x="30" y="90" as="offset"/>
                    </mxGeometry>
                </mxCell>
                <mxCell id="148" value="PointOfInterest" style="html=1;" vertex="1" parent="146">
                    <mxGeometry x="173" y="90" width="110" height="30" as="geometry"/>
                </mxCell>
                <mxCell id="157" style="edgeStyle=none;html=1;entryX=0.5;entryY=1;entryDx=0;entryDy=0;entryPerimeter=0;startArrow=classic;startFill=1;exitX=0.487;exitY=0.151;exitDx=0;exitDy=0;exitPerimeter=0;" edge="1" parent="1" source="151" target="134">
                    <mxGeometry relative="1" as="geometry"/>
                </mxCell>
                <mxCell id="151" value="&lt;font style=&quot;font-size: 14px;&quot;&gt;Persistencia&lt;/font&gt;" style="shape=folder;fontStyle=1;tabWidth=135;tabHeight=28;tabPosition=left;html=1;boundedLbl=1;labelInHeader=1;container=1;collapsible=0;recursiveResize=0;fillColor=#d5e8d4;strokeColor=#82b366;" vertex="1" parent="1">
                    <mxGeometry x="438" y="96" width="306" height="186" as="geometry"/>
                </mxCell>
                <mxCell id="152" value="FirestoreDataset" style="html=1;" vertex="1" parent="151">
                    <mxGeometry width="110" height="30" relative="1" as="geometry">
                        <mxPoint x="96" y="62" as="offset"/>
                    </mxGeometry>
                </mxCell>
                <mxCell id="153" value="EcoCityTourRepository" style="html=1;" vertex="1" parent="151">
                    <mxGeometry x="84" y="116" width="144" height="30" as="geometry"/>
                </mxCell>
            </root>
        </mxGraphModel>
    </diagram>
</mxfile>